<svg width="70" height="61" viewBox="0 0 70 61" fill="none" xmlns="http://www.w3.org/2000/svg">
<path d="M46.7083 6.20117C47.195 6.20117 47.5899 6.59627 47.5901 7.08301C47.5901 7.56987 47.1951 7.96484 46.7083 7.96484C42.5959 7.96495 38.9052 10.7157 37.7336 14.6523C37.6049 15.0864 37.1703 15.348 36.7327 15.2686L36.7288 15.2734L36.637 15.2461C36.1705 15.107 35.9041 14.6162 36.0432 14.1494L36.1799 13.7236C37.6736 9.35988 41.8121 6.20127 46.7083 6.20117Z" fill="black" fill-opacity="0.54" stroke="#F9FFF9" stroke-width="0.3"/>
<path d="M56.9524 42.9384H52.5621C52.1581 42.9384 51.8303 42.6107 51.8303 42.2067C51.8303 41.8027 52.158 41.4749 52.5621 41.4749H56.9524C63.0043 41.4749 67.9283 36.5509 67.9283 30.499C67.9283 24.4471 63.0043 19.523 56.9524 19.523H56.8468C56.6346 19.523 56.4329 19.4311 56.2938 19.2706C56.1548 19.1101 56.0921 18.8974 56.1224 18.6873C56.1877 18.2315 56.2207 17.7737 56.2207 17.3279C56.2207 12.0829 51.953 7.81531 46.7081 7.81531C44.6676 7.81531 42.7217 8.45296 41.0805 9.65978C40.7199 9.92478 40.2077 9.80718 39.9991 9.41047C35.3511 0.559699 23.2109 -0.628869 16.9169 7.07053C14.2654 10.3142 13.2236 14.5336 14.0584 18.646C14.1504 19.1002 13.8029 19.5236 13.3413 19.5236H13.0481C6.99624 19.5236 2.07217 24.4477 2.07217 30.4996C2.07217 36.5514 6.99624 41.4755 13.0481 41.4755H17.4385C17.8425 41.4755 18.1702 41.8032 18.1702 42.2072C18.1702 42.6113 17.8425 42.939 17.4385 42.939H13.0481C6.18914 42.939 0.608643 37.3585 0.608643 30.4995C0.608643 23.8329 5.88019 18.3742 12.4737 18.0731C11.8544 13.8066 13.0387 9.50295 15.7837 6.14437C22.5224 -2.0996 35.4366 -1.17556 40.8958 8.01707C42.6373 6.92522 44.6302 6.35244 46.7079 6.35244C53.0624 6.35244 58.0978 11.761 57.6572 18.08C64.19 18.4463 69.3915 23.8763 69.3915 30.499C69.3915 37.3585 63.811 42.9384 56.9521 42.9384L56.9524 42.9384Z" fill="black" fill-opacity="0.54"/>
<path d="M34.9026 23.3496C45.0723 23.3499 53.3459 31.6242 53.3459 41.7939C53.3457 51.9634 45.0722 60.2371 34.9026 60.2373C24.7329 60.2373 16.4585 51.9637 16.4583 41.7939C16.4583 31.6241 24.7326 23.3496 34.9026 23.3496ZM34.9026 25.1143C25.7056 25.1143 18.2229 32.597 18.2229 41.7939C18.2232 50.9908 25.7058 58.4736 34.9026 58.4736C44.0991 58.4734 51.582 50.9905 51.5823 41.7939C51.5823 32.5971 44.0993 25.1145 34.9026 25.1143Z" fill="black" fill-opacity="0.54" stroke="#F9FFF9" stroke-width="0.3"/>
<path d="M35.2375 34.543C35.616 34.5432 35.9231 34.851 35.9231 35.2295V49.1572C35.9231 49.5362 35.6159 49.8435 35.2375 49.8438C34.8589 49.8438 34.551 49.5359 34.551 49.1572V35.2295C34.551 34.8509 34.8589 34.543 35.2375 34.543Z" fill="black" fill-opacity="0.54" stroke="#483EA8" stroke-width="0.3"/>
<path d="M34.8596 34.6575C35.1257 34.4818 35.4877 34.5111 35.7219 34.7454L40.0071 39.0315L40.095 39.1389C40.2707 39.4051 40.2415 39.7668 40.0071 40.0012L40.0061 40.0002C39.9058 40.1007 39.7829 40.1647 39.6536 40.1897L39.5227 40.2014C39.3913 40.2014 39.2589 40.1644 39.1448 40.0891L39.0374 40.0012L35.2366 36.1995L31.4358 40.0012C31.2016 40.2355 30.8396 40.2649 30.5735 40.0891L30.4661 40.0012C30.1983 39.7334 30.1984 39.2994 30.4661 39.0315L34.7522 34.7454L34.8596 34.6575Z" fill="black" fill-opacity="0.54" stroke="#483EA8" stroke-width="0.3"/>
</svg>
